<?xml version="1.0" encoding="UTF-8" standalone="no"?>
<svg
   version="1.0"
   width="490.83008pt"
   height="511.81174pt"
   viewBox="0 0 490.83008 511.81174"
   preserveAspectRatio="xMidYMid"
   id="svg9"
   xmlns="http://www.w3.org/2000/svg"
   xmlns:svg="http://www.w3.org/2000/svg">
  <defs
     id="defs9" />
  <g
     transform="matrix(0.1,0,0,-0.1,-10.493864,511.91543)"
     fill="#000000"
     stroke="none"
     id="g9">
    <path
       d="M 393,5105 C 291,5074 217,5009 171,4910 l -26,-55 v -638 -639 l 28,-24 c 38,-33 96,-33 134,0 l 28,24 5,619 c 5,673 3,649 64,694 l 31,24 938,3 937,2 v -172 c 0,-198 11,-289 41,-353 34,-72 102,-140 177,-177 l 66,-33 218,-3 218,-4 V 3095 2012 l -32,-19 c -18,-11 -156,-124 -306,-251 l -273,-232 h -328 c -366,0 -452,-9 -601,-63 l -85,-31 -485,-1 H 435 l -31,22 c -66,47 -64,25 -64,715 0,692 4,655 -66,684 -29,12 -39,12 -68,0 -70,-29 -67,9 -64,-712 l 3,-649 33,-67 c 36,-74 95,-132 170,-170 46,-22 56,-23 380,-28 l 334,-5 -27,-25 c -62,-58 -89,-163 -63,-242 25,-73 123,-222 165,-251 65,-45 91,-50 266,-55 137,-3 167,-7 167,-19 0,-30 52,-124 96,-172 31,-34 70,-63 122,-88 67,-34 86,-38 163,-41 59,-3 105,1 142,12 118,34 235,145 272,256 l 17,50 h 652 652 l 28,-66 c 40,-91 119,-175 205,-217 63,-30 72,-32 181,-32 109,0 118,2 181,32 102,50 182,146 222,264 4,13 26,17 119,21 122,6 173,22 231,77 50,46 67,98 118,353 54,272 55,289 10,372 -35,67 -84,99 -204,137 -133,41 -249,99 -413,208 -162,108 -281,167 -441,221 -181,60 -332,83 -530,78 l -163,-3 v 1115 c -1,856 -4,1120 -13,1136 -21,38 -741,776 -765,785 -13,5 -462,9 -1020,8 -795,0 -1006,-3 -1039,-14 z m 2316,-535 183,-190 h -119 c -103,0 -124,3 -163,23 -54,27 -80,61 -91,118 -10,56 -12,239 -1,239 4,0 90,-85 191,-190 z m 984,-2719 c 53,-12 139,-35 190,-52 96,-33 247,-104 247,-117 0,-4 -27,-35 -58,-68 -101,-107 -40,-99 -730,-102 -391,-2 -601,1 -598,7 7,11 306,266 351,299 17,12 64,31 105,42 65,17 97,20 235,16 111,-3 190,-11 258,-25 z m 681,-317 c 120,-72 271,-139 374,-164 77,-19 77,-23 24,-285 -55,-267 -46,-255 -179,-255 h -81 l -30,64 c -52,111 -145,194 -261,231 -85,28 -217,18 -302,-23 -82,-39 -159,-119 -200,-207 l -31,-65 h -651 -652 l -33,70 c -41,88 -111,158 -199,202 -64,31 -73,33 -178,33 -108,0 -113,-1 -187,-38 -91,-44 -154,-109 -199,-203 l -30,-64 h -132 c -85,0 -141,5 -156,13 -34,17 -114,151 -106,177 3,10 42,47 87,80 133,100 276,164 441,195 68,13 236,15 1147,15 675,0 1087,4 1120,10 101,19 158,54 255,156 49,51 92,94 95,94 3,0 32,-16 64,-36 z M 2068,921 c 207,-106 135,-411 -96,-411 -108,0 -200,78 -216,182 -13,89 46,198 128,234 47,20 140,18 184,-5 z m 2150,-14 c 54,-35 94,-105 100,-171 5,-69 -35,-149 -96,-191 -60,-41 -156,-47 -222,-13 -158,81 -157,301 1,386 62,33 158,28 217,-11 z"
       id="path1"
       style="display:inline" />
    <path
       d="m 3560,4803 c -52,-20 -83,-89 -60,-134 27,-53 45,-59 189,-59 115,0 141,-3 177,-20 79,-39 74,32 74,-1050 v -963 l -50,47 c -40,37 -56,46 -85,46 -47,0 -71,-14 -91,-52 -30,-58 -16,-82 139,-236 141,-139 144,-142 187,-142 44,0 47,2 194,149 l 149,150 -6,43 c -8,56 -43,88 -98,88 -34,0 -48,-7 -89,-46 l -50,-46 -2,993 -3,994 -34,63 c -40,74 -84,115 -161,151 -51,24 -67,26 -210,28 -85,1 -162,0 -170,-4 z"
       id="path2"
       style="fill:#c8011d;fill-opacity:1" />
    <path
       d="m 774,4370 c -56,-22 -72,-108 -30,-157 l 24,-28 528,-3 c 386,-2 536,1 557,9 30,13 57,55 57,89 0,33 -26,75 -55,88 -31,14 -1046,16 -1081,2 z"
       id="path3"
       style="fill:#c8011d;fill-opacity:1" />
    <path
       d="m 749,3691 c -57,-57 -27,-151 52,-166 19,-3 413,-4 876,-3 832,3 842,3 869,24 52,38 56,103 9,150 l -24,24 H 1655 778 Z"
       id="path4"
       style="fill:#c8011d;fill-opacity:1" />
    <path
       d="m 187,3269 c -22,-13 -47,-61 -47,-93 0,-14 13,-40 28,-57 23,-25 36,-32 71,-33 37,-1 47,4 73,33 26,29 30,39 25,75 -7,53 -44,86 -95,86 -20,0 -45,-5 -55,-11 z"
       id="path5"
       style="fill:#c8011d;fill-opacity:1" />
    <path
       d="m 773,3056 c -61,-27 -74,-107 -24,-157 l 29,-29 h 872 c 578,0 878,3 891,10 53,29 61,116 13,161 l -26,24 -861,2 c -717,2 -867,0 -894,-11 z"
       id="path6"
       style="fill:#c8011d;fill-opacity:1" />
    <path
       d="m 1102,2409 c -54,-27 -60,-35 -236,-321 -163,-265 -170,-287 -119,-340 32,-33 95,-38 129,-10 12,9 86,122 165,251 l 144,235 5,-125 c 4,-105 9,-130 27,-159 30,-49 93,-82 152,-82 61,0 98,20 145,76 21,25 42,46 47,46 5,0 9,-41 9,-90 0,-97 14,-141 49,-160 11,-5 73,-10 139,-10 135,0 166,13 177,73 13,69 -27,113 -113,124 l -50,6 -4,56 c -8,105 -61,172 -155,196 -62,16 -126,4 -179,-33 l -44,-32 v 83 c -1,122 -36,185 -122,222 -52,21 -115,19 -166,-6 z"
       id="path7"
       style="fill:#c8011d;fill-opacity:1" />
    <path
       d="m 2030,2392 c -65,-32 -78,-119 -23,-162 24,-19 39,-20 283,-20 244,0 259,1 283,20 55,43 42,130 -23,162 -30,16 -66,18 -260,18 -194,0 -230,-2 -260,-18 z"
       id="path8"
       style="fill:#c8011d;fill-opacity:1" />
    <path
       d="M 258,823 C 173,739 116,674 110,655 89,593 136,530 202,530 c 32,0 47,8 87,45 l 49,46 4,-183 C 345,265 347,252 372,199 405,127 467,65 539,31 L 595,5 1009,2 c 448,-3 460,-2 486,49 19,35 19,63 1,98 -26,50 -37,51 -460,51 -392,0 -393,0 -427,23 -60,40 -69,72 -69,246 v 154 l 50,-47 c 42,-39 55,-46 90,-46 57,0 100,42 100,96 0,35 -10,48 -147,186 -146,147 -148,148 -192,148 -44,0 -47,-2 -183,-137 z"
       id="path9"
       style="fill:#c8011d;fill-opacity:1" />
  </g>
</svg>
