<?xml version="1.0" encoding="UTF-8" standalone="no"?>
<svg
   version="1.0"
   width="512pt"
   height="512pt"
   viewBox="0 0 512 512"
   preserveAspectRatio="xMidYMid"
   id="svg3"
   xmlns="http://www.w3.org/2000/svg"
   xmlns:svg="http://www.w3.org/2000/svg">
  <defs
     id="defs3" />
  <g
     transform="matrix(0.1,0,0,-0.1,0,512)"
     fill="#000000"
     stroke="none"
     id="g3">
    <path
       d="m 1885,4661 c -107,-6 -126,-10 -174,-36 -68,-38 -191,-151 -232,-216 l -32,-49 h -126 c -151,0 -194,-11 -242,-59 -123,-123 -132,-590 -14,-720 l 33,-36 188,-3 187,-3 44,-49 c 82,-91 205,-128 318,-95 69,20 134,62 171,110 l 26,35 h 622 622 l 38,-46 c 26,-31 61,-57 105,-78 132,-62 277,-34 374,74 l 44,48 146,4 c 145,3 146,3 176,32 76,73 99,303 45,462 -25,75 -74,161 -101,179 -13,9 -61,23 -106,30 -105,18 -410,52 -551,61 l -110,7 -93,82 c -185,165 -289,232 -393,255 -64,13 -778,22 -965,11 z m 462,-183 c -3,-18 -9,-53 -12,-77 l -7,-44 -241,6 c -132,4 -286,7 -341,7 l -101,1 40,36 c 84,75 112,88 204,94 47,3 171,6 275,7 l 188,2 z m 498,6 c 46,-13 233,-140 222,-150 -4,-4 -569,17 -575,21 -1,1 3,36 9,78 l 11,77 142,-6 c 77,-3 164,-12 191,-20 z m -517,-289 c 3,-3 90,-472 92,-492 0,-2 -76,-3 -169,-3 h -169 l -6,38 c -22,122 -84,210 -184,259 -76,38 -191,40 -267,5 -100,-46 -177,-148 -191,-254 l -7,-48 h -127 -127 l -12,53 c -31,127 -21,326 21,415 l 13,27 150,6 c 150,6 976,1 983,-6 z m 707,-26 c 201,-10 548,-35 652,-45 l 62,-7 17,-46 c 67,-184 75,-191 215,-191 102,0 103,-1 89,-98 -5,-37 -10,-70 -10,-74 0,-5 -40,-8 -89,-8 h -89 l -6,48 c -11,71 -51,146 -107,196 -119,107 -302,107 -427,1 -45,-38 -89,-118 -103,-187 l -12,-58 h -323 c -178,0 -324,3 -324,8 0,4 -18,107 -40,230 -22,122 -40,229 -40,238 0,15 16,16 173,10 94,-3 258,-11 362,-17 z m 983,-106 c 14,-23 14,-23 -27,-23 -35,0 -43,4 -51,26 -6,14 -10,27 -10,28 0,2 16,0 36,-3 22,-4 42,-15 52,-28 z M 1813,3856 c 44,-18 93,-76 101,-120 20,-108 -88,-217 -191,-191 -73,18 -133,91 -133,161 0,52 40,116 89,141 50,26 88,29 134,9 z m 1817,-9 c 119,-63 115,-229 -6,-287 -62,-31 -121,-21 -175,27 -68,62 -75,153 -15,221 57,64 123,78 196,39 z"
       id="path1"
       style="fill:#c8011d;fill-opacity:1" />
    <path
       d="m 2608,4150 c -38,-29 -39,-90 -3,-118 36,-29 234,-42 270,-18 44,29 46,102 2,130 -13,9 -64,17 -132,21 -103,7 -112,6 -137,-15 z"
       id="path2" />
    <path
       d="m 1062,3264 c -18,-9 -41,-29 -51,-43 -18,-25 -616,-1111 -660,-1198 -39,-78 -23,-158 41,-206 59,-45 247,-137 278,-137 17,0 47,7 67,15 30,13 39,13 48,3 135,-153 134,-152 119,-180 -75,-143 40,-328 203,-328 h 51 l -5,-38 c -7,-51 11,-110 48,-161 55,-77 178,-113 264,-77 34,15 35,15 41,-12 20,-83 92,-160 170,-182 50,-14 120,-8 163,15 l 29,15 12,-50 c 36,-151 198,-224 338,-154 l 53,26 59,-26 c 136,-59 363,-103 479,-93 110,9 176,40 254,118 53,55 73,69 97,69 43,0 119,28 168,62 48,33 96,101 114,160 8,29 16,38 33,38 38,0 124,50 164,97 45,51 73,123 74,193 1,46 1,47 49,69 93,42 168,149 168,237 0,41 0,42 93,100 50,32 132,87 181,122 l 89,63 30,-37 c 34,-40 80,-64 127,-64 31,0 219,92 278,137 64,48 80,128 41,206 -44,85 -642,1173 -660,1198 -28,40 -83,62 -138,56 -47,-5 -242,-105 -288,-149 -29,-27 -45,-78 -41,-130 3,-41 2,-42 -37,-54 -92,-28 -181,-17 -355,45 -47,16 -133,37 -191,45 -204,30 -593,15 -881,-34 -135,-23 -183,-49 -246,-136 -26,-35 -52,-64 -58,-64 -33,0 -313,74 -361,95 -49,22 -55,28 -49,47 25,84 15,147 -32,190 -15,14 -74,51 -132,83 -119,66 -181,78 -238,49 z m 168,-192 c 46,-26 84,-51 83,-57 0,-5 -144,-272 -319,-592 l -319,-582 -90,48 c -49,27 -90,53 -90,58 0,14 636,1173 644,1172 3,0 44,-22 91,-47 z m 3075,-533 c 176,-320 321,-585 323,-590 3,-7 -178,-114 -182,-107 -13,18 -635,1156 -638,1166 -2,10 153,111 172,112 3,0 150,-262 325,-581 z m -1210,329 c 33,-8 110,-32 170,-54 106,-38 114,-39 235,-38 102,0 134,4 177,21 l 51,20 241,-438 c 133,-241 241,-443 241,-449 0,-13 -129,-108 -247,-182 l -93,-59 -32,38 c -149,175 -650,518 -1047,716 l -145,72 -104,-3 c -73,-2 -121,2 -158,13 -69,20 -86,11 -148,-71 -106,-141 -277,-225 -490,-241 -75,-5 -88,-4 -81,8 40,66 423,584 441,595 24,16 146,37 344,59 160,18 558,13 645,-7 z m -1691,-97 c 10,-15 146,-61 265,-89 l 111,-27 -137,-190 -138,-190 v -60 c 0,-47 5,-67 23,-93 40,-55 73,-67 197,-66 231,1 440,87 586,240 l 56,59 124,-1 124,-1 200,-108 c 296,-160 380,-212 634,-394 162,-115 231,-177 282,-253 51,-75 52,-114 4,-162 -41,-41 -103,-55 -161,-36 -21,7 -178,95 -350,196 -342,201 -363,209 -403,158 -27,-34 -27,-67 2,-98 26,-30 588,-360 667,-392 l 55,-23 3,-49 c 2,-42 -1,-54 -25,-82 -15,-18 -42,-39 -60,-46 -32,-14 -35,-12 -331,146 -164,88 -308,160 -319,160 -12,0 -34,-11 -49,-23 -32,-28 -37,-76 -9,-107 10,-11 133,-81 274,-156 141,-75 259,-139 263,-143 13,-13 -19,-75 -54,-104 -70,-56 -93,-52 -351,62 -224,99 -260,111 -297,91 -39,-21 -45,-98 -9,-126 8,-6 84,-41 169,-79 85,-37 168,-74 185,-83 l 29,-15 -27,-23 c -34,-29 -116,-54 -178,-54 -64,0 -187,24 -279,55 -106,36 -105,35 -82,81 30,61 35,108 17,169 -28,98 -106,161 -211,172 -51,5 -52,6 -43,30 15,40 10,125 -10,168 -36,78 -120,135 -200,135 h -39 l 5,58 c 9,100 -51,199 -143,238 -81,34 -197,9 -259,-56 l -28,-30 -26,52 c -80,160 -277,182 -399,43 -22,-25 -42,-45 -45,-45 -9,0 -147,166 -147,177 0,6 107,205 238,444 131,239 244,444 251,457 12,22 35,29 45,13 z M 1294,1639 c 46,-36 37,-75 -40,-171 -85,-106 -99,-118 -139,-118 -44,0 -79,42 -71,83 3,15 38,67 77,115 96,117 122,131 173,91 z m 445,-95 c 41,-52 44,-48 -183,-324 -110,-135 -136,-160 -168,-160 -36,0 -78,40 -78,74 0,15 19,49 47,83 178,220 268,330 282,341 27,22 77,15 100,-14 z m 251,-304 c 40,-40 28,-70 -81,-205 -130,-161 -152,-178 -204,-159 -17,7 -45,54 -45,78 0,16 86,127 187,244 47,53 59,62 89,62 21,0 42,-8 54,-20 z m 234,-321 c 28,-13 49,-60 39,-87 -7,-20 -77,-109 -106,-134 -30,-27 -81,-23 -106,8 -32,40 -26,66 32,137 68,85 92,98 141,76 z"
       id="path3" />
  </g>
</svg>
