<?xml version="1.0" encoding="UTF-8" standalone="no"?>
<svg
   version="1.0"
   width="511.89456pt"
   height="512pt"
   viewBox="0 0 511.89456 512"
   preserveAspectRatio="xMidYMid"
   id="svg4"
   xmlns="http://www.w3.org/2000/svg"
   xmlns:svg="http://www.w3.org/2000/svg">
  <defs
     id="defs4" />
  <g
     transform="matrix(0.1,0,0,-0.1,-0.05732296,512)"
     fill="#000000"
     stroke="none"
     id="g4">
    <path
       d="m 1402,5038 3,-83 83,-3 82,-3 v -108 -108 l -144,-47 c -80,-26 -198,-74 -263,-106 L 1045,4521 892,4673 740,4825 518,4602 295,4380 422,4253 549,4125 513,4085 C 143,3667 -45,3083 10,2529 49,2146 193,1782 428,1470 508,1365 718,1157 825,1078 1039,919 1295,794 1535,731 l 40,-10 2,-143 c 1,-79 1,-156 1,-173 -1,-16 -2,-91 -2,-165 -1,-126 1,-137 22,-168 13,-18 41,-41 62,-52 38,-19 62,-20 815,-20 632,0 782,3 808,14 40,16 86,69 94,107 3,16 8,29 10,29 3,0 37,-15 76,-34 604,-289 1321,-10 1572,609 140,347 105,729 -97,1051 -33,53 -140,182 -286,345 -172,191 -231,263 -223,272 5,7 89,75 185,152 l 176,140 v 42 c 0,116 -54,245 -137,328 -59,59 -166,119 -234,130 -41,7 -41,7 -36,45 l 5,38 -67,30 c -85,39 -151,59 -230,71 -35,6 -65,12 -66,13 -2,2 -24,55 -50,118 -76,188 -191,381 -312,524 -32,38 -64,76 -70,85 -11,14 4,34 112,141 l 125,125 -222,222 -223,223 -150,-150 -151,-151 -134,65 c -107,51 -280,116 -377,142 -10,2 -13,34 -13,113 v 110 l 83,3 82,3 3,83 3,82 h -666 -666 z m 988,-181 v -94 l -47,8 c -136,23 -451,20 -598,-4 -6,-1 -11,36 -13,91 l -3,92 h 331 330 z m -61,-253 c 445,-64 851,-283 1154,-622 136,-151 275,-375 346,-558 l 19,-51 -80,-17 c -44,-10 -81,-16 -82,-14 -1,2 -19,43 -41,91 -225,514 -710,897 -1265,997 C 1383,4609 453,3914 340,2905 261,2199 652,1491 1295,1175 c 61,-30 146,-66 190,-81 44,-15 83,-30 86,-33 3,-3 3,-43 0,-88 l -6,-81 -110,37 C 881,1125 428,1591 251,2167 c -65,211 -75,285 -76,553 0,218 3,258 23,359 167,822 811,1422 1647,1534 83,11 386,6 484,-9 z m -1505,-93 78,-79 -78,-60 c -44,-33 -97,-76 -119,-95 l -40,-36 -68,67 -67,67 107,107 c 59,60 108,108 108,108 0,0 36,-35 79,-79 z m 2709,-203 c -58,-58 -70,-66 -84,-55 -9,6 -50,39 -90,72 -41,33 -88,70 -104,82 l -30,22 80,80 80,81 107,-107 108,-108 z m -1551,-180 3,-163 h 80 80 l 3,164 3,163 67,-7 c 97,-9 246,-41 338,-70 167,-55 392,-180 519,-289 l 40,-35 -115,-115 -115,-116 58,-57 57,-58 116,115 115,115 35,-40 c 90,-104 198,-287 258,-437 35,-89 34,-104 -6,-111 -203,-33 -378,-240 -378,-446 v -57 l 185,-148 c 125,-100 183,-152 178,-160 -5,-7 -102,-117 -218,-246 -115,-128 -231,-261 -256,-295 -54,-75 -118,-195 -149,-282 l -23,-63 h -196 c -251,-1 -290,-13 -332,-105 -14,-29 -19,-64 -19,-132 v -93 h -80 -80 l -2,163 -3,162 -82,3 -83,3 v -167 -166 l -62,7 c -335,36 -636,167 -893,387 -5,5 37,55 105,123 l 115,115 -58,57 -57,58 -115,-115 -115,-114 -30,34 c -57,66 -179,256 -219,340 -78,169 -129,349 -146,522 l -7,67 163,3 164,3 v 80 80 l -164,3 -163,3 7,67 c 18,176 66,351 142,512 43,92 163,281 223,350 l 30,34 115,-114 115,-115 57,58 58,57 -115,115 -114,115 34,30 c 56,48 237,168 309,204 172,86 435,160 588,165 l 33,1 z m 2143,-934 c 33,-8 63,-18 67,-22 5,-5 -97,-545 -127,-669 -5,-22 -10,-23 -103,-23 h -97 l -68,341 c -38,188 -65,345 -60,349 15,14 83,32 151,39 81,9 157,4 237,-15 z m -483,-439 c 51,-257 54,-275 36,-275 -10,0 -97,63 -193,140 -132,106 -175,146 -175,163 0,73 107,200 193,230 87,32 77,50 139,-258 z m 819,240 c 59,-30 123,-103 143,-162 9,-26 16,-52 16,-59 0,-18 -348,-294 -371,-294 -15,0 -18,5 -14,23 7,28 105,520 105,525 0,10 78,-12 121,-33 z m 16,-927 c 283,-314 314,-353 373,-473 71,-143 92,-230 97,-402 6,-160 -7,-248 -58,-387 -90,-251 -324,-485 -575,-575 -139,-51 -227,-64 -387,-58 -198,6 -339,48 -488,144 -67,43 -81,77 -61,138 16,46 12,238 -5,269 -7,13 -6,30 5,60 16,48 13,238 -5,271 -8,14 -8,25 0,40 15,29 21,212 8,261 -27,99 -75,126 -234,134 l -118,5 45,90 c 65,132 83,155 348,452 l 243,272 297,1 h 296 z M 3220,1240 v -80 h -370 -370 v 80 80 h 370 370 z M 2560,910 v -80 h -415 -415 v 80 80 h 415 415 z m 660,0 v -80 h -245 -245 v 80 80 h 245 245 z M 2560,580 v -80 h -415 -415 v 80 80 h 415 415 z m 660,0 v -80 h -245 -245 v 80 80 h 245 245 z M 2560,250 v -80 h -415 -415 v 80 80 h 415 415 z m 660,0 v -80 h -245 -245 v 80 80 h 245 245 z"
       id="path1"
       style="display:inline" />
    <path
       d="m 1995,3781 c -43,-19 -89,-66 -100,-101 -4,-12 -30,-162 -59,-333 l -52,-313 -43,-56 c -193,-257 -51,-611 266,-660 142,-22 296,41 384,157 118,157 112,361 -15,520 -31,39 -34,50 -85,360 -29,176 -59,331 -66,345 -18,35 -54,67 -97,85 -49,20 -84,19 -133,-4 z m 85,-157 c 0,-3 18,-113 40,-244 22,-131 40,-240 40,-242 0,-2 -43,-3 -95,-3 -52,0 -95,1 -95,3 0,2 18,111 40,242 22,131 40,241 40,244 0,3 7,6 15,6 8,0 15,-3 15,-6 z m 85,-673 c 52,-24 121,-99 134,-147 27,-98 7,-179 -65,-251 -99,-99 -242,-100 -344,-1 -47,47 -70,102 -70,173 0,100 54,184 145,226 53,24 147,25 200,0 z"
       id="path2"
       style="fill:#c8011d;fill-opacity:1" />
    <path
       d="m 2010,2782 c -36,-37 -39,-71 -6,-108 49,-58 140,-25 140,51 0,42 -26,72 -71,81 -27,5 -37,1 -63,-24 z"
       id="path3"
       style="fill:#c8011d;fill-opacity:1" />
    <path
       d="m 3880,1900 v -79 l -37,-6 c -140,-23 -241,-111 -280,-244 -19,-65 -12,-152 16,-216 26,-60 95,-132 156,-163 45,-23 65,-26 206,-32 178,-7 207,-18 248,-90 43,-76 19,-165 -59,-217 -30,-21 -45,-23 -162,-23 -146,0 -183,11 -221,64 -16,23 -23,49 -26,103 l -3,73 h -85 -86 l 5,-78 c 5,-88 35,-165 87,-224 38,-44 134,-94 197,-104 l 44,-6 v -79 -79 h 85 85 v 79 79 l 43,6 c 97,15 203,89 245,173 87,170 17,370 -157,455 -39,19 -68,23 -196,28 -127,4 -155,8 -185,26 -105,62 -109,202 -7,278 24,18 46,21 150,24 70,2 137,-1 158,-7 46,-14 96,-69 105,-116 l 6,-35 h 85 85 l -7,33 c -16,82 -39,130 -86,181 -55,60 -106,89 -186,106 l -53,12 v 79 79 h -85 -85 z"
       id="path4"
       style="display:inline;fill:#c8011d;fill-opacity:1" />
  </g>
</svg>
