<svg width="80" height="80" viewBox="0 0 80 80" fill="none" xmlns="http://www.w3.org/2000/svg">
<path d="M42.7853 3.36412C42.7853 2.47862 43.137 1.6294 43.7632 1.00325C44.3893 0.377114 45.2385 0.0253514 46.124 0.0253514C54.976 0.0350726 63.4626 3.55582 69.7219 9.81512C75.9812 16.0744 79.502 24.5611 79.5117 33.413C79.5117 34.2985 79.16 35.1478 78.5338 35.7739C77.9077 36.4001 77.0584 36.7518 76.1729 36.7518C75.2874 36.7518 74.4382 36.4001 73.8121 35.7739C73.1859 35.1478 72.8342 34.2985 72.8342 33.413C72.8262 26.3315 70.0096 19.5423 65.0022 14.5349C59.9948 9.5275 53.2056 6.71084 46.124 6.70289C45.2385 6.70289 44.3893 6.35113 43.7632 5.72499C43.137 5.09885 42.7853 4.24962 42.7853 3.36412ZM46.124 20.058C49.666 20.058 53.0629 21.465 55.5675 23.9696C58.072 26.4741 59.4791 29.8711 59.4791 33.413C59.4791 34.2985 59.8309 35.1478 60.457 35.7739C61.0831 36.4001 61.9324 36.7518 62.8179 36.7518C63.7034 36.7518 64.5526 36.4001 65.1787 35.7739C65.8049 35.1478 66.1566 34.2985 66.1566 33.413C66.1513 28.1017 64.0391 23.0094 60.2834 19.2537C56.5277 15.498 51.4354 13.3857 46.124 13.3804C45.2385 13.3804 44.3893 13.7322 43.7632 14.3583C43.137 14.9845 42.7853 15.8337 42.7853 16.7192C42.7853 17.6047 43.137 18.4539 43.7632 19.0801C44.3893 19.7062 45.2385 20.058 46.124 20.058ZM76.4835 55.913C78.4183 57.8532 79.5048 60.4815 79.5048 63.2216C79.5048 65.9617 78.4183 68.5899 76.4835 70.5302L73.4452 74.0325C46.1007 100.212 -20.441 33.6868 5.33428 6.2555L9.17386 2.91673C11.1163 1.03592 13.721 -0.00453362 16.4247 0.0204596C19.1283 0.0454529 21.7134 1.13388 23.6207 3.05028C23.7242 3.15378 29.911 11.1902 29.911 11.1902C31.7467 13.1188 32.7686 15.6806 32.7643 18.3432C32.7599 21.0058 31.7296 23.5643 29.8876 25.4868L26.0213 30.3481C28.1609 35.5469 31.3068 40.2717 35.2781 44.251C39.2493 48.2303 43.9678 51.3857 49.1623 53.5358L54.0536 49.6461C55.9764 47.8055 58.5344 46.7765 61.1962 46.7727C63.858 46.769 66.4189 47.7909 68.3469 49.6261C68.3469 49.6261 76.3799 55.8095 76.4835 55.913ZM71.8893 60.7676C71.8893 60.7676 63.8996 54.6209 63.7961 54.5174C63.1083 53.8354 62.1789 53.4527 61.2102 53.4527C60.2416 53.4527 59.3122 53.8354 58.6244 54.5174C58.5342 54.6109 51.7999 59.9763 51.7999 59.9763C51.3461 60.3375 50.806 60.5743 50.2329 60.6633C49.6597 60.7523 49.0733 60.6904 48.5313 60.4838C41.8019 57.9783 35.6895 54.0558 30.6082 48.982C25.5269 43.9082 21.5954 37.8016 19.08 31.0759C18.857 30.5265 18.7842 29.9277 18.8693 29.3409C18.9544 28.7541 19.1942 28.2005 19.5641 27.7371C19.5641 27.7371 24.9295 20.9995 25.0197 20.9127C25.7017 20.2249 26.0843 19.2954 26.0843 18.3268C26.0843 17.3582 25.7017 16.4288 25.0197 15.7409C24.9162 15.6408 18.7695 7.64442 18.7695 7.64442C18.0713 7.01843 17.1602 6.68318 16.2228 6.70739C15.2855 6.7316 14.3928 7.11344 13.7279 7.77464L9.88836 11.1134C-8.94898 33.7636 48.7149 88.229 68.5639 69.4718L71.6055 65.9661C72.3183 65.3058 72.7464 64.3944 72.7993 63.4242C72.8523 62.4541 72.526 61.5015 71.8893 60.7676Z" fill="white"/>
</svg>
